<svg xmlns="http://www.w3.org/2000/svg" xmlns:xlink="http://www.w3.org/1999/xlink" version="1.1" x="0px" y="0px" viewBox="0 0 100 125" style="enable-background:new 0 0 100 100;" xml:space="preserve"><path d="M95.6,25.1c0,0-3.1-14.8-16.5-20C72.8,2.6,61.3,1.5,50,1.4C38.7,1.5,27.2,2.6,20.9,5  c-13.4,5.2-16.5,20-16.5,20c-2,8.4-2.7,16.9-2.6,24.4C1.7,57,2.3,65.6,4.4,73.9c0,0,3.1,14.8,16.5,20c6.3,2.4,17.8,3.6,29.1,3.7  c11.3-0.1,22.8-1.2,29.1-3.7c13.4-5.2,16.5-20,16.5-20c2-8.4,2.7-16.9,2.6-24.4C98.3,42,97.7,33.4,95.6,25.1z M66.8,60.4l-6.1,6.1  L49.8,55.6L38.8,66.5l-6.1-6.1l10.9-10.9L32.8,38.6l6.1-6.1l10.9,10.9l10.9-10.9l6.1,6.1L55.8,49.5L66.8,60.4z"/><text x="0" y="115" fill="#000000" font-size="5px" font-weight="bold" font-family="'Helvetica Neue', Helvetica, Arial-Unicode, Arial, Sans-serif">Created by Aneeque Ahmed</text><text x="0" y="120" fill="#000000" font-size="5px" font-weight="bold" font-family="'Helvetica Neue', Helvetica, Arial-Unicode, Arial, Sans-serif">from the Noun Project</text></svg>